<?xml version="1.0" standalone="no"?>
<!DOCTYPE svg PUBLIC "-//W3C//DTD SVG 20010904//EN"
 "http://www.w3.org/TR/2001/REC-SVG-20010904/DTD/svg10.dtd">
<svg version="1.0" xmlns="http://www.w3.org/2000/svg"
 width="512.000000pt" height="615.000000pt" viewBox="0 0 512.000000 615.000000"
 preserveAspectRatio="xMidYMid meet">

<g transform="translate(0.000000,615.000000) scale(0.100000,-0.100000)"
fill="#000000" stroke="none">
<path d="M1967 4924 c-14 -14 -32 -42 -39 -62 -19 -53 -15 -377 5 -514 l16
-107 -43 -83 c-65 -123 -87 -203 -93 -340 -4 -72 -1 -142 6 -180 11 -59 82
-221 123 -280 18 -26 18 -27 -50 -220 -168 -473 -230 -743 -239 -1036 -7 -198
4 -185 -108 -129 -150 75 -254 157 -291 228 -53 105 -14 224 135 409 68 84 80
120 58 172 -46 109 -227 143 -334 62 -67 -51 -199 -244 -239 -351 -79 -210
-38 -381 129 -539 130 -122 294 -210 612 -328 l144 -53 83 -85 c99 -100 184
-148 321 -182 51 -13 109 -35 131 -49 56 -39 97 -47 230 -47 146 0 192 17 236
87 l29 45 24 -39 c13 -21 34 -47 46 -57 27 -25 134 -45 239 -46 76 0 90 3 165
39 45 22 109 47 142 56 159 46 339 146 412 229 50 57 149 256 167 337 23 99
29 242 17 369 -28 287 -96 507 -248 810 -57 113 -103 212 -103 221 0 9 7 22
14 29 8 6 22 35 31 63 9 29 34 88 56 132 41 84 69 199 69 286 0 63 -18 181
-35 229 -12 35 -10 46 32 171 89 267 128 478 104 566 -35 128 -186 109 -530
-64 l-166 -84 -66 21 c-154 48 -384 65 -534 39 l-62 -11 -99 78 c-270 212
-428 278 -497 208z m257 -193 c84 -41 146 -101 146 -141 0 -66 -140 -162 -238
-164 -53 -1 -56 0 -76 34 -28 47 -29 193 -2 264 l19 48 44 -5 c24 -2 72 -19
107 -36z m1567 -98 c24 -75 -11 -267 -54 -295 -42 -27 -141 13 -219 90 -84 82
-81 124 12 180 69 41 131 60 197 61 51 1 52 0 64 -36z m-2433 -1808 c33 -20
62 -63 62 -92 0 -11 -30 -57 -66 -103 -36 -46 -75 -101 -87 -122 -24 -42 -34
-44 -177 -40 -128 4 -170 12 -170 31 0 27 108 193 173 266 35 39 71 69 90 75
45 13 140 5 175 -15z"/>
</g>
</svg>
